<svg xmlns="http://www.w3.org/2000/svg" xmlns:xlink="http://www.w3.org/1999/xlink" fill="none" version="1.1" width="25" height="20" viewBox="0 0 25 20"><defs><clipPath id="master_svg0_2_1223"><rect x="0" y="0" width="25" height="20" rx="0"/></clipPath></defs><g clip-path="url(#master_svg0_2_1223)"><g transform="matrix(1,0,0,-1,0,40.859375)"><g><path d="M12.5,40.4296875Q13.0469,40.4296875,13.3984,40.078087499999995Q13.75,39.7265875,13.75,39.1796875L13.75,36.6796875L18.4375,36.6796875Q19.6484,36.640587499999995,20.4297,35.8593875Q21.2109,35.0780875,21.25,33.8671875L21.25,23.2421875Q21.2109,22.0312475,20.4297,21.2499995Q19.6484,20.46875,18.4375,20.4296875L6.5625,20.4296875Q5.35156,20.46875,4.57031,21.2499995Q3.78906,22.0312475,3.75,23.2421875L3.75,33.8671875Q3.78906,35.0780875,4.57031,35.8593875Q5.35156,36.640587499999995,6.5625,36.6796875L11.25,36.6796875L11.25,39.1796875Q11.25,39.7265875,11.6016,40.078087499999995Q11.9531,40.4296875,12.5,40.4296875ZM8.125,25.4296875Q7.53906,25.3906275,7.5,24.8046875Q7.53906,24.2187475,8.125,24.1796875L9.375,24.1796875Q9.96094,24.2187475,10,24.8046875Q9.96094,25.3906275,9.375,25.4296875L8.125,25.4296875ZM11.875,25.4296875Q11.2891,25.3906275,11.25,24.8046875Q11.2891,24.2187475,11.875,24.1796875L13.125,24.1796875Q13.7109,24.2187475,13.75,24.8046875Q13.7109,25.3906275,13.125,25.4296875L11.875,25.4296875ZM15.625,25.4296875Q15.0391,25.3906275,15,24.8046875Q15.0391,24.2187475,15.625,24.1796875L16.875,24.1796875Q17.4609,24.2187475,17.5,24.8046875Q17.4609,25.3906275,16.875,25.4296875L15.625,25.4296875ZM10.3125,30.4296875Q10.2734,31.328087500000002,9.53125,31.7968875Q8.75,32.1874875,7.96875,31.7968875Q7.22656,31.328087500000002,7.1875,30.4296875Q7.22656,29.5312475,7.96875,29.0624975Q8.75,28.6718775,9.53125,29.0624975Q10.2734,29.5312475,10.3125,30.4296875ZM16.25,28.8671875Q17.1484,28.9062475,17.6172,29.6484375Q18.0078,30.4296875,17.6172,31.2108875Q17.1484,31.953087500000002,16.25,31.9921875Q15.3516,31.953087500000002,14.8828,31.2108875Q14.4922,30.4296875,14.8828,29.6484375Q15.3516,28.9062475,16.25,28.8671875ZM1.875,31.6796875L2.5,31.6796875L1.875,31.6796875L2.5,31.6796875L2.5,24.1796875L1.875,24.1796875Q1.09375,24.2187475,0.546875,24.7265675Q0.0390625,25.2734375,0,26.0546875L0,29.8046875Q0.0390625,30.5858875,0.546875,31.1327875Q1.09375,31.640587500000002,1.875,31.6796875ZM23.125,31.6796875Q23.9062,31.640587500000002,24.4531,31.1327875Q24.9609,30.5858875,25,29.8046875L25,26.0546875Q24.9609,25.2734375,24.4531,24.7265675Q23.9062,24.2187475,23.125,24.1796875L22.5,24.1796875L22.5,31.6796875L23.125,31.6796875Z" fill="#1AE92E" fill-opacity="1" style="mix-blend-mode:passthrough"/></g></g></g></svg>