<svg xmlns="http://www.w3.org/2000/svg" xmlns:xlink="http://www.w3.org/1999/xlink" fill="none" version="1.1" width="21" height="24" viewBox="0 0 21 24"><defs><clipPath id="master_svg0_29_256"><rect x="0" y="0" width="21" height="24" rx="0"/></clipPath></defs><g clip-path="url(#master_svg0_29_256)"><g transform="matrix(1,0,0,-1,0,49.03125)"><g><path d="M4.5,47.015625L4.5,45.515625L4.5,47.015625L4.5,45.515625L2.25,45.515625Q1.3125,45.468725,0.65625,44.859425Q0.046875,44.203125,0,43.265625L0,41.015625L21,41.015625L21,43.265625Q20.9531,44.203125,20.3438,44.859425Q19.6875,45.468725,18.75,45.515625L16.5,45.515625L16.5,47.015625Q16.5,47.671825,16.0781,48.093725Q15.6562,48.515625,15,48.515625Q14.3438,48.515625,13.9219,48.093725Q13.5,47.671825,13.5,47.015625L13.5,45.515625L7.5,45.515625L7.5,47.015625Q7.5,47.671825,7.07812,48.093725Q6.65625,48.515625,6,48.515625Q5.34375,48.515625,4.92188,48.093725Q4.5,47.671825,4.5,47.015625ZM21,39.515625L0,39.515625L21,39.515625L0,39.515625L0,26.765625Q0.046875,25.828125,0.65625,25.171875Q1.3125,24.5625,2.25,24.515625L18.75,24.515625Q19.6875,24.5625,20.3438,25.171875Q20.9531,25.828125,21,26.765625L21,39.515625Z" fill="#000000" fill-opacity="1" style="mix-blend-mode:passthrough"/></g></g></g></svg>