<svg xmlns="http://www.w3.org/2000/svg" xmlns:xlink="http://www.w3.org/1999/xlink" fill="none" version="1.1" width="17.5" height="20" viewBox="0 0 17.5 20"><defs><clipPath id="master_svg0_2_1233"><rect x="0" y="0" width="17.5" height="20" rx="0"/></clipPath></defs><g clip-path="url(#master_svg0_2_1233)"><g transform="matrix(1,0,0,-1,0,40.859375)"><g><path d="M0,36.6796875Q0.0390625,38.281287500000005,1.09375,39.3358875Q2.14844,40.390587499999995,3.75,40.4296875L15,40.4296875L16.25,40.4296875Q16.7969,40.4296875,17.1484,40.078087499999995Q17.5,39.7265875,17.5,39.1796875L17.5,26.6796875Q17.5,26.1328075,17.1484,25.7812475Q16.7969,25.4296875,16.25,25.4296875L16.25,22.9296875Q16.7969,22.9296875,17.1484,22.5781275Q17.5,22.2265675,17.5,21.6796875Q17.5,21.1328125,17.1484,20.7812495Q16.7969,20.4296875,16.25,20.4296875L15,20.4296875L3.75,20.4296875Q2.14844,20.46875,1.09375,21.5234375Q0.0390625,22.5781275,0,24.1796875L0,36.6796875ZM2.5,24.1796875Q2.5,23.6328075,2.85156,23.2812475Q3.20312,22.9296875,3.75,22.9296875L13.75,22.9296875L13.75,25.4296875L3.75,25.4296875Q3.20312,25.4296875,2.85156,25.0781275Q2.5,24.7265675,2.5,24.1796875ZM8.125,36.0546875L8.125,34.1796875L8.125,36.0546875L8.125,34.1796875L6.25,34.1796875Q5.66406,34.1405875,5.625,33.5546875L5.625,32.3046875Q5.66406,31.718787499999998,6.25,31.6796875L8.125,31.6796875L8.125,29.8046875Q8.16406,29.2187475,8.75,29.1796875L10,29.1796875Q10.5859,29.2187475,10.625,29.8046875L10.625,31.6796875L12.5,31.6796875Q13.0859,31.718787499999998,13.125,32.3046875L13.125,33.5546875Q13.0859,34.1405875,12.5,34.1796875L10.625,34.1796875L10.625,36.0546875Q10.5859,36.640587499999995,10,36.6796875L8.75,36.6796875Q8.16406,36.640587499999995,8.125,36.0546875Z" fill="#27DE7A" fill-opacity="1" style="mix-blend-mode:passthrough"/></g></g></g></svg>