<svg xmlns="http://www.w3.org/2000/svg" xmlns:xlink="http://www.w3.org/1999/xlink" fill="none" version="1.1" width="15" height="20" viewBox="0 0 15 20"><defs><clipPath id="master_svg0_2_1228"><rect x="0" y="0" width="15" height="20" rx="0"/></clipPath></defs><g clip-path="url(#master_svg0_2_1228)"><g transform="matrix(1,0,0,-1,0,40.859375)"><g><path d="M7.5,40.4296875Q6.25,40.390587499999995,5.3125,39.7265875Q4.375,39.0234875,3.98438,37.9296875L2.5,37.9296875Q1.44531,37.890587499999995,0.742188,37.1874875Q0.0390625,36.4843875,0,35.4296875L0,22.9296875Q0.0390625,21.8749975,0.742188,21.1718755Q1.44531,20.46875,2.5,20.4296875L12.5,20.4296875Q13.5547,20.46875,14.2578,21.1718755Q14.9609,21.8749975,15,22.9296875L15,35.4296875Q14.9609,36.4843875,14.2578,37.1874875Q13.5547,37.890587499999995,12.5,37.9296875L11.0547,37.9296875Q10.625,39.0234875,9.6875,39.7265875Q8.75,40.390587499999995,7.5,40.4296875ZM7.5,37.9296875Q8.04688,37.9296875,8.39844,37.578087499999995Q8.75,37.2265875,8.75,36.6796875Q8.75,36.1327875,8.39844,35.7812875Q8.04688,35.4296875,7.5,35.4296875Q6.95312,35.4296875,6.60156,35.7812875Q6.25,36.1327875,6.25,36.6796875Q6.25,37.2265875,6.60156,37.578087499999995Q6.95312,37.9296875,7.5,37.9296875ZM2.8125,29.8046875Q2.89062,30.6640875,3.75,30.7421875Q4.60938,30.6640875,4.6875,29.8046875Q4.60938,28.9453075,3.75,28.8671875Q2.89062,28.9453075,2.8125,29.8046875ZM6.875,30.4296875L11.875,30.4296875L6.875,30.4296875L11.875,30.4296875Q12.4609,30.3906275,12.5,29.8046875Q12.4609,29.2187475,11.875,29.1796875L6.875,29.1796875Q6.28906,29.2187475,6.25,29.8046875Q6.28906,30.3906275,6.875,30.4296875ZM2.8125,26.0546875Q2.89062,26.9140675,3.75,26.9921875Q4.60938,26.9140675,4.6875,26.0546875Q4.60938,25.1953075,3.75,25.1171875Q2.89062,25.1953075,2.8125,26.0546875ZM6.25,26.0546875Q6.28906,26.6406275,6.875,26.6796875L11.875,26.6796875Q12.4609,26.6406275,12.5,26.0546875Q12.4609,25.4687475,11.875,25.4296875L6.875,25.4296875Q6.28906,25.4687475,6.25,26.0546875Z" fill="#34E05C" fill-opacity="1" style="mix-blend-mode:passthrough"/></g></g></g></svg>